HIERARCHY
ROOT hip
{
  OFFSET 0.00112043 5.09927 -9.65472
  CHANNELS 6 Xposition Yposition Zposition Zrotation Xrotation Yrotation
  JOINT abdomen
  {
    OFFSET 0 -1.186 -1.5018
    CHANNELS 3 Zrotation Xrotation Yrotation
    JOINT abdomen2
    {
      OFFSET 0 9.964 0.2134
      CHANNELS 3 Zrotation Xrotation Yrotation
      JOINT chest
      {
        OFFSET 0 13.134 -3.2573
        CHANNELS 3 Zrotation Xrotation Yrotation
        JOINT neck
        {
          OFFSET 0 20.686 -1.6905
          CHANNELS 3 Zrotation Xrotation Yrotation
          JOINT head
          {
            OFFSET 0 7.238 -0.1237
            CHANNELS 3 Zrotation Xrotation Yrotation
            End Site
            {
              OFFSET 0 0 0
            }
          }
        }
        JOINT lCollar
        {
          OFFSET 1.7069 20.075 5.0056
          CHANNELS 3 Zrotation Xrotation Yrotation
          JOINT lShldr
          {
            OFFSET 13.6458 -0.047 -4.849
            CHANNELS 3 Zrotation Xrotation Yrotation
            JOINT lForeArm
            {
              OFFSET 28.3255 -0.9759 2.2888
              CHANNELS 3 Zrotation Xrotation Yrotation
              JOINT lHand
              {
                OFFSET 22.1583 -0.53 10.8316
                CHANNELS 3 Zrotation Xrotation Yrotation
                JOINT lThumb1
                {
                  OFFSET 0.786 0.112 2.5817
                  CHANNELS 3 Zrotation Xrotation Yrotation
                  JOINT lThumb2
                  {
                    OFFSET 0.3601 -0.878 4.2331
                    CHANNELS 3 Zrotation Xrotation Yrotation
                    JOINT lThumb2_End
                    {
                      OFFSET 1.8127 -1.216 2.2227
                      CHANNELS 3 Zrotation Xrotation Yrotation
                      End Site
                      {
                        OFFSET 0.0181 -0.0122 0.0222
                      }
                    }
                  }
                }
                JOINT lCarpal1
                {
                  OFFSET 0.9571 1.114 1.7695
                  CHANNELS 3 Zrotation Xrotation Yrotation
                  JOINT lIndex1
                  {
                    OFFSET 4.1246 0.487 4.1451
                    CHANNELS 3 Zrotation Xrotation Yrotation
                    JOINT lIndex2
                    {
                      OFFSET 3.4052 -1.454 2.7682
                      CHANNELS 3 Zrotation Xrotation Yrotation
                      JOINT lIndex2_End
                      {
                        OFFSET 1.4531 -1.795 1.2713
                        CHANNELS 3 Zrotation Xrotation Yrotation
                        End Site
                        {
                          OFFSET 0.0145 -0.0179 0.0127
                        }
                      }
                    }
                  }
                  JOINT lMid1
                  {
                    OFFSET 5.6954 0.21 2.1184
                    CHANNELS 3 Zrotation Xrotation Yrotation
                    JOINT lMid2
                    {
                      OFFSET 3.9766 -1.54 2.3863
                      CHANNELS 3 Zrotation Xrotation Yrotation
                      JOINT lMid2_End
                      {
                        OFFSET 1.4042 -1.926 1.125
                        CHANNELS 3 Zrotation Xrotation Yrotation
                        End Site
                        {
                          OFFSET 0.014 -0.0193 0.0113
                        }
                      }
                    }
                  }
                }
                JOINT lCarpal2
                {
                  OFFSET 2.0956 0.66 -0.3894
                  CHANNELS 3 Zrotation Xrotation Yrotation
                  JOINT lRing1
                  {
                    OFFSET 5.0395 -0.09 2.4971
                    CHANNELS 3 Zrotation Xrotation Yrotation
                    JOINT lRing2
                    {
                      OFFSET 3.7921 -1.552 1.4806
                      CHANNELS 3 Zrotation Xrotation Yrotation
                      JOINT lRing2_End
                      {
                        OFFSET 1.4655 -1.808 0.9609
                        CHANNELS 3 Zrotation Xrotation Yrotation
                        End Site
                        {
                          OFFSET 0.0147 -0.0181 0.0096
                        }
                      }
                    }
                  }
                  JOINT lPinky1
                  {
                    OFFSET 4.9141 -1.269 0.3591
                    CHANNELS 3 Zrotation Xrotation Yrotation
                    JOINT lPinky2
                    {
                      OFFSET 3.1477 -1.685 0.8462
                      CHANNELS 3 Zrotation Xrotation Yrotation
                      JOINT lPinky2_End
                      {
                        OFFSET 0.8055 -1.585 0.7955
                        CHANNELS 3 Zrotation Xrotation Yrotation
                        End Site
                        {
                          OFFSET 0.0081 -0.0158 0.008
                        }
                      }
                    }
                  }
                }
              }
            }
          }
        }
        JOINT rCollar
        {
          OFFSET -1.7069 20.075 5.0056
          CHANNELS 3 Zrotation Xrotation Yrotation
          JOINT rShldr
          {
            OFFSET -13.6458 -0.047 -4.849
            CHANNELS 3 Zrotation Xrotation Yrotation
            JOINT rForeArm
            {
              OFFSET -28.3255 -0.9759 2.2888
              CHANNELS 3 Zrotation Xrotation Yrotation
              JOINT rHand
              {
                OFFSET -22.1583 -0.53 10.8316
                CHANNELS 3 Zrotation Xrotation Yrotation
                JOINT rThumb1
                {
                  OFFSET -0.786 0.112 2.5817
                  CHANNELS 3 Zrotation Xrotation Yrotation
                  JOINT rThumb2
                  {
                    OFFSET -0.3601 -0.878 4.2331
                    CHANNELS 3 Zrotation Xrotation Yrotation
                    JOINT rThumb2_End
                    {
                      OFFSET -1.8127 -1.216 2.2227
                      CHANNELS 3 Zrotation Xrotation Yrotation
                      End Site
                      {
                        OFFSET -0.0181 -0.0122 0.0222
                      }
                    }
                  }
                }
                JOINT rCarpal1
                {
                  OFFSET -0.9571 1.114 1.7695
                  CHANNELS 3 Zrotation Xrotation Yrotation
                  JOINT rIndex1
                  {
                    OFFSET -4.1246 0.487 4.1451
                    CHANNELS 3 Zrotation Xrotation Yrotation
                    JOINT rIndex2
                    {
                      OFFSET -3.4052 -1.454 2.7682
                      CHANNELS 3 Zrotation Xrotation Yrotation
                      JOINT rIndex2_End
                      {
                        OFFSET -1.4531 -1.795 1.2713
                        CHANNELS 3 Zrotation Xrotation Yrotation
                        End Site
                        {
                          OFFSET -0.0145 -0.018 0.0127
                        }
                      }
                    }
                  }
                  JOINT rMid1
                  {
                    OFFSET -5.6954 0.21 2.1184
                    CHANNELS 3 Zrotation Xrotation Yrotation
                    JOINT rMid2
                    {
                      OFFSET -3.9766 -1.54 2.3863
                      CHANNELS 3 Zrotation Xrotation Yrotation
                      JOINT rMid2_End
                      {
                        OFFSET -1.4042 -1.926 1.125
                        CHANNELS 3 Zrotation Xrotation Yrotation
                        End Site
                        {
                          OFFSET -0.014 -0.0193 0.0113
                        }
                      }
                    }
                  }
                }
                JOINT rCarpal2
                {
                  OFFSET -2.0956 0.66 -0.3894
                  CHANNELS 3 Zrotation Xrotation Yrotation
                  JOINT rRing1
                  {
                    OFFSET -5.0395 -0.09 2.4971
                    CHANNELS 3 Zrotation Xrotation Yrotation
                    JOINT rRing2
                    {
                      OFFSET -3.7921 -1.552 1.4806
                      CHANNELS 3 Zrotation Xrotation Yrotation
                      JOINT rRing2_End
                      {
                        OFFSET -1.4655 -1.808 0.9609
                        CHANNELS 3 Zrotation Xrotation Yrotation
                        End Site
                        {
                          OFFSET -0.0147 -0.0181 0.0096
                        }
                      }
                    }
                  }
                  JOINT rPinky1
                  {
                    OFFSET -4.9141 -1.269 0.3592
                    CHANNELS 3 Zrotation Xrotation Yrotation
                    JOINT rPinky2
                    {
                      OFFSET -3.1477 -1.685 0.8462
                      CHANNELS 3 Zrotation Xrotation Yrotation
                      JOINT rPinky2_End
                      {
                        OFFSET -0.8055 -1.585 0.7955
                        CHANNELS 3 Zrotation Xrotation Yrotation
                        End Site
                        {
                          OFFSET -0.0081 -0.0158 0.008
                        }
                      }
                    }
                  }
                }
              }
            }
          }
        }
      }
    }
  }
  JOINT lThigh
  {
    OFFSET 8.367 -8.2066 0.5982
    CHANNELS 3 Zrotation Xrotation Yrotation
    JOINT lShin
    {
      OFFSET 2.1923 -43.463 -0.4932
      CHANNELS 3 Zrotation Xrotation Yrotation
      JOINT lFoot
      {
        OFFSET 0.7333 -45.8593 -2.6451
        CHANNELS 3 Zrotation Xrotation Yrotation
        End Site
        {
          OFFSET 2.6618 -4.2699 12.3931
        }
      }
    }
  }
  JOINT rThigh
  {
    OFFSET -8.367 -8.2066 0.5982
    CHANNELS 3 Zrotation Xrotation Yrotation
    JOINT rShin
    {
      OFFSET -2.1923 -43.463 -0.4931
      CHANNELS 3 Zrotation Xrotation Yrotation
      JOINT rFoot
      {
        OFFSET -0.7333 -45.8593 -2.6451
        CHANNELS 3 Zrotation Xrotation Yrotation
        End Site
        {
          OFFSET -2.6618 -4.2699 12.3931
        }
      }
    }
  }
}
MOTION
Frames:	4
Frame Time:	0.0333333
0 91.7903 2.51682 0 0 -0 0 0 -0 0 0 -0 0 0 -0 0 0 -0 0 0 -0 0 0 -0 1.66051 0.0835086 5.75766 -0.0175111 0.895433 15.7816 7.95139e-016 -1.98785e-016 -0 5.46658e-016 -3.97569e-016 -0 5.96354e-016 0 -0 3.97569e-016 1.98785e-016 9.54166e-015 1.49089e-016 -3.97569e-016 -0 6.4605e-016 0 3.18055e-015 5.96354e-016 0 3.18055e-015 8.94531e-016 -1.98785e-016 6.36111e-015 6.4605e-016 0 3.18055e-015 5.96354e-016 0 3.18055e-015 8.94531e-016 -1.98785e-016 6.36111e-015 1.49089e-016 -3.97569e-016 -0 6.4605e-016 0 3.18055e-015 5.96354e-016 0 3.18055e-015 8.94531e-016 -1.98785e-016 6.36111e-015 6.4605e-016 0 3.18055e-015 5.96354e-016 0 3.18055e-015 8.94531e-016 -1.98785e-016 6.36111e-015 0 0 -0 -1.4496 0.0636048 -5.0245 -1.74811 1.20616 -16.8394 -1.19271e-015 1.98785e-016 -3.18055e-015 -3.97569e-016 1.98785e-016 -3.18055e-015 -2.98177e-016 1.98785e-016 -3.18055e-015 -2.98177e-016 3.97569e-016 -0 4.96962e-016 0 -6.36111e-015 -9.93923e-017 3.97569e-016 -0 -8.94531e-016 5.96354e-016 -0 -3.97569e-016 3.97569e-016 -0 -9.93923e-017 3.97569e-016 -0 -8.94531e-016 5.96354e-016 -0 -3.97569e-016 3.97569e-016 -0 4.96962e-016 0 -6.36111e-015 -9.93923e-017 3.97569e-016 -0 -8.94531e-016 5.96354e-016 -0 -3.97569e-016 3.97569e-016 -0 -9.93923e-017 3.97569e-016 -0 -8.94531e-016 5.96354e-016 -0 -3.97569e-016 3.97569e-016 -0 -4.66111 -0.998717 0.12318 0.00986924 1.54847 0.176523 4.65186 -0.572283 -0.254274 4.66111 -0.998765 -0.123176 -0.00986867 1.54869 -0.176537 -4.65186 -0.572453 0.25427 
9.41939 8.00709 -12.3188 -70.9173 14.8336 -55.4925 6.27794 4.81836 5.91637 12.0942 10.2326 11.3339 12.0942 10.2326 11.3339 -26.5852 11.4013 3.9096 26.8856 -16.7323 -2.6949 43.6835 -15.9859 29.218 -44.6932 -23.1025 -33.8874 9.61253 -41.5297 -106.986 32.3689 -11.4831 19.3131 -8.5823e-007 9.36026e-007 -1.40708e-006 4.29115e-007 -4.68013e-007 7.0354e-007 -9.54166e-015 0 -3.18055e-015 -3.18055e-015 3.18055e-015 -9.54166e-015 -8.5823e-007 9.36026e-007 -1.40708e-006 4.29115e-007 -4.68013e-007 7.0354e-007 -1.59028e-015 -3.18055e-015 -3.18055e-015 -8.5823e-007 9.36026e-007 -1.40708e-006 4.29115e-007 -4.68013e-007 7.0354e-007 -1.59028e-015 -3.18055e-015 -3.18055e-015 -3.18055e-015 3.18055e-015 -9.54166e-015 -8.5823e-007 9.36026e-007 -1.40708e-006 4.29115e-007 -4.68013e-007 7.0354e-007 -1.59028e-015 -3.18055e-015 -3.18055e-015 -8.5823e-007 9.36026e-007 -1.40708e-006 4.29115e-007 -4.68013e-007 7.0354e-007 -1.59028e-015 -3.18055e-015 -3.18055e-015 5.92834 -7.54604 -11.2959 -10.578 45.1555 25.3848 8.50727 -10.7043 11.572 -35.1927 -13.3689 4.96743 1.73749e-006 -1.45767e-006 9.26948e-007 4.77083e-015 3.18055e-015 -0 -1.73749e-006 1.45767e-006 -9.26948e-007 -9.93923e-016 0 2.5842e-015 1.73749e-006 -1.45767e-006 9.26948e-007 2.6339e-015 0 -1.59028e-015 -1.73749e-006 1.45767e-006 -9.26948e-007 1.73749e-006 -1.45767e-006 9.26948e-007 2.6339e-015 0 -1.59028e-015 -1.73749e-006 1.45767e-006 -9.26948e-007 -9.93923e-016 0 2.5842e-015 1.73749e-006 -1.45767e-006 9.26948e-007 2.6339e-015 0 -1.59028e-015 -1.73749e-006 1.45767e-006 -9.26948e-007 1.73749e-006 -1.45767e-006 9.26948e-007 2.6339e-015 0 -1.59028e-015 -1.73749e-006 1.45767e-006 -9.26948e-007 22.1765 -43.2478 59.5386 11.4264 53.1872 -10.2971 -4.50626 25.0106 1.99327 -48.2403 -51.1918 -94.7664 -169.433 79.2541 166.126 3.34283 31.9639 -5.02359 
9.41939 8.00709 -12.3188 -70.9173 14.8336 -55.4925 6.27794 4.81836 5.91637 12.0942 10.2326 11.3339 12.0942 10.2326 11.3339 -26.5852 11.4013 3.9096 26.8186 -16.5478 -2.99111 43.6835 -15.9859 29.218 -44.6932 -23.1025 -33.8874 9.61253 -41.5297 -106.986 32.3689 -11.4831 19.3131 -8.5823e-007 9.36026e-007 -1.40708e-006 4.29115e-007 -4.68013e-007 7.0354e-007 -9.54166e-015 0 -3.18055e-015 -3.18055e-015 3.18055e-015 -9.54166e-015 -8.5823e-007 9.36026e-007 -1.40708e-006 4.29115e-007 -4.68013e-007 7.0354e-007 -1.59028e-015 -3.18055e-015 -3.18055e-015 -8.5823e-007 9.36026e-007 -1.40708e-006 4.29115e-007 -4.68013e-007 7.0354e-007 -1.59028e-015 -3.18055e-015 -3.18055e-015 -3.18055e-015 3.18055e-015 -9.54166e-015 -8.5823e-007 9.36026e-007 -1.40708e-006 4.29115e-007 -4.68013e-007 7.0354e-007 -1.59028e-015 -3.18055e-015 -3.18055e-015 -8.5823e-007 9.36026e-007 -1.40708e-006 4.29115e-007 -4.68013e-007 7.0354e-007 -1.59028e-015 -3.18055e-015 -3.18055e-015 5.92834 -7.54604 -11.2959 -10.3614 44.9562 25.0108 8.6712 -10.6085 12.2581 -35.0239 -12.8789 5.08972 -1.53171e-006 1.59843e-006 1.58227e-006 1.40246e-006 1.58657e-006 -4.66434e-007 -1.46709e-006 5.93102e-009 1.02435e-006 8.94531e-016 3.18055e-015 2.5842e-015 -1.53171e-006 1.59843e-006 1.58227e-006 1.40246e-006 1.58657e-006 -4.66434e-007 -1.46709e-006 5.93102e-009 1.02435e-006 -1.53171e-006 1.59843e-006 1.58227e-006 1.40246e-006 1.58657e-006 -4.66434e-007 -1.46709e-006 5.93102e-009 1.02435e-006 8.94531e-016 3.18055e-015 2.5842e-015 -1.53171e-006 1.59843e-006 1.58227e-006 1.40246e-006 1.58657e-006 -4.66434e-007 -1.46709e-006 5.93102e-009 1.02435e-006 -1.53171e-006 1.59843e-006 1.58227e-006 1.40246e-006 1.58657e-006 -4.66434e-007 -1.46709e-006 5.93102e-009 1.02435e-006 22.1765 -43.2478 59.5386 11.4264 53.1872 -10.2971 -4.50626 25.0106 1.99327 -48.2403 -51.1918 -94.7664 -169.433 79.2541 166.126 3.34283 31.9639 -5.0236 
9.41939 8.00709 -12.3188 -70.9173 14.8336 -55.4925 6.27794 4.81836 5.91637 12.0942 10.2326 11.3339 12.0942 10.2326 11.3339 -26.5852 11.4013 3.9096 26.7526 -16.3627 -3.28704 43.6835 -15.9859 29.218 -44.6932 -23.1025 -33.8874 9.61253 -41.5297 -106.986 32.3689 -11.4831 19.3131 -8.5823e-007 9.36026e-007 -1.40708e-006 4.29115e-007 -4.68013e-007 7.0354e-007 -9.54166e-015 0 -3.18055e-015 -3.18055e-015 3.18055e-015 -9.54166e-015 -8.5823e-007 9.36026e-007 -1.40708e-006 4.29115e-007 -4.68013e-007 7.0354e-007 -1.59028e-015 -3.18055e-015 -3.18055e-015 -8.5823e-007 9.36026e-007 -1.40708e-006 4.29115e-007 -4.68013e-007 7.0354e-007 -1.59028e-015 -3.18055e-015 -3.18055e-015 -3.18055e-015 3.18055e-015 -9.54166e-015 -8.5823e-007 9.36026e-007 -1.40708e-006 4.29115e-007 -4.68013e-007 7.0354e-007 -1.59028e-015 -3.18055e-015 -3.18055e-015 -8.5823e-007 9.36026e-007 -1.40708e-006 4.29115e-007 -4.68013e-007 7.0354e-007 -1.59028e-015 -3.18055e-015 -3.18055e-015 5.92834 -7.54604 -11.2959 -10.1474 44.7559 24.639 8.83431 -10.5106 12.9454 -34.8562 -12.388 5.2105 2.54906e-007 5.52251e-007 -1.59437e-006 -1.8269e-006 1.45707e-006 -1.02013e-006 5.14821e-006 2.40627e-006 1.04007e-006 -4.96962e-015 0 -3.18055e-015 2.54906e-007 5.52251e-007 -1.59437e-006 -1.8269e-006 1.45707e-006 -1.02013e-006 5.14821e-006 2.40627e-006 1.04007e-006 2.54906e-007 5.52251e-007 -1.59437e-006 -1.8269e-006 1.45707e-006 -1.02013e-006 5.14821e-006 2.40627e-006 1.04007e-006 -4.96962e-015 0 -3.18055e-015 2.54906e-007 5.52251e-007 -1.59437e-006 -1.8269e-006 1.45707e-006 -1.02013e-006 5.14821e-006 2.40627e-006 1.04007e-006 2.54906e-007 5.52251e-007 -1.59437e-006 -1.8269e-006 1.45707e-006 -1.02013e-006 5.14821e-006 2.40627e-006 1.04007e-006 22.1765 -43.2478 59.5386 11.4264 53.1872 -10.2971 -4.50626 25.0106 1.99327 -48.2403 -51.1918 -94.7664 -169.433 79.2541 166.126 3.34283 31.9639 -5.0236 
